<?xml version="1.0" encoding="UTF-8"?>
<svg width="498.9" height="225.41" version="1.1" viewBox="0 0 498.9 225.41" xmlns="http://www.w3.org/2000/svg"><g transform="translate(1791.3 -872.45)"><g transform="translate(6.8743 8.8448)"><text transform="translate(-6.8743 -8.8448)" fill="#000000" font-family="sans-serif" font-size="40px" style="line-height:1.25;shape-inside:url(#rect24912);white-space:pre" xml:space="preserve"/><text transform="translate(-6.8743 -8.8448)" fill="#000000" font-family="sans-serif" font-size="40px" style="line-height:1.25;shape-inside:url(#rect27514);white-space:pre" xml:space="preserve"/><g transform="rotate(-.5 49928 4653.4)"><path d="m-1413.1 636.84c-62.233-20.312-64.474-32.202-15.351-81.464 44.36-44.486 55.954-50.96 64.078-35.779 5.8794 10.986 6.3595 10.2-27.253 44.636-31.212 31.977-31.212 31.977-17.332 37.776 92.883 38.809 154.99-97.66 65.754-144.47-45.096-23.655-64.38-13.625-164.45 85.539-91.343 90.518-98.293 95.132-143.41 95.205-125.87 0.20463-157.29-173.71-39.36-217.84 39.609-14.819 84.335-6.0619 116.49 22.809 16.569 14.877 16.569 14.877-23.587 55.429-40.618 41.019-52.837 48.806-63.152 40.245-11.265-9.3493-6.0203-20.488 23.745-50.429 29.432-29.606 29.432-29.606 15.42-35.46-91.15-38.085-154.25 98.378-66.621 144.08 45.973 23.976 64.77 14.313 165.18-84.919 90.882-89.814 94.736-92.457 138.24-94.829 124.15-6.768 166.4 157.6 54.888 213.54-21.349 10.711-60.157 13.472-83.281 5.9244z" stroke-width="3.8244"/></g><text transform="matrix(10.062 0 0 10.062 22264 -5280.4)" fill="#000000" font-family="sans-serif" font-size="40px" style="line-height:1.25;shape-inside:url(#rect39019);white-space:pre" xml:space="preserve"/></g></g></svg>
