<?xml version="1.0" encoding="UTF-8"?>
<svg width="455.52mm" height="102.66mm" version="1.1" viewBox="0 0 455.52 102.66" xmlns="http://www.w3.org/2000/svg"><g transform="translate(-84.885 -105.35)" stroke-width="2.6622"><path d="m145.48 151.68c0 6.3894-0.9939 11.962-2.9817 16.719-1.9878 4.6855-4.792 8.5902-8.4127 11.714-3.6206 3.0527-7.9512 5.36-12.992 6.9218-5.0405 1.4908-10.578 2.2363-16.612 2.2363-2.9817 0-6.2829-0.142-9.9036-0.42598-3.5496-0.21296-6.7798-0.67442-9.6905-1.3844v-71.561c2.9107-0.70993 6.1409-1.1714 9.6905-1.3844 3.6206-0.28397 6.9218-0.42596 9.9036-0.42596 6.0344 0 11.572 0.78092 16.612 2.3428 5.0405 1.4908 9.3711 3.7981 12.992 6.9218 3.6206 3.0527 6.4249 6.9573 8.4127 11.714 1.9878 4.6855 2.9817 10.223 2.9817 16.612zm-40.147 28.539c9.797 0 17.109-2.4848 21.937-7.4543 4.8275-5.0405 7.2413-12.069 7.2413-21.085s-2.4138-16.009-7.2413-20.978c-4.8275-5.0405-12.14-7.5608-21.937-7.5608-2.9107 0-5.1825 0.0355-6.8153 0.10649-1.5619 0.071-2.6622 0.14198-3.3012 0.21298v56.439c0.63894 0.071 1.7393 0.142 3.3012 0.21299 1.6328 0.071 3.9046 0.10649 6.8153 0.10649z" fill="#fff" style="shape-inside:url(#rect39019);white-space:pre"/><path d="m250.77 188.48c-16.512-5.2302-17.132-8.3709-4.2495-21.518 11.634-11.872 14.686-13.612 16.871-9.6141 1.5808 2.893 1.7062 2.6838-7.1074 11.872-8.184 8.5322-8.184 8.5322-4.4984 10.034 24.664 10.053 40.783-26.196 17.063-38.373-11.986-6.1543-17.064-3.4561-43.309 23.011-23.958 24.159-25.786 25.396-37.724 25.52-33.302 0.34475-42.015-45.596-10.916-57.542 10.445-4.0123 22.298-1.7985 30.871 5.7656 4.4177 3.8978 4.4177 3.8978-6.1125 14.72-10.652 10.946-13.867 13.035-16.615 10.794-3.002-2.4476-1.6402-5.4067 6.1657-13.397 7.7186-7.9007 7.7186-7.9007 3.9979-9.4174-24.203-9.8657-40.583 26.384-17.293 38.272 12.218 6.2373 17.169 3.6374 43.506-22.848 23.837-23.972 24.851-24.68 36.356-25.408 32.831-2.0772 44.387 41.313 15.015 56.37-5.6237 2.8832-15.885 3.7032-22.02 1.7597z" fill="#a1a1a1" style="shape-inside:url(#rect39019);white-space:pre"/><path d="m449.46 198.32c0.78094 0.35497 1.7748 0.67445 2.9817 0.95843 1.2779 0.35496 2.5202 0.53245 3.7271 0.53245 3.9046 0 6.9573-0.88742 9.1581-2.6622 2.2008-1.7038 4.1886-4.5081 5.9634-8.4127-4.4725-8.5192-8.6611-17.535-12.566-27.048-3.8336-9.584-7.0283-19.275-9.584-29.072h10.649c0.78092 3.1947 1.7038 6.6378 2.7687 10.329 1.1359 3.6916 2.3783 7.4898 3.7271 11.394 1.3488 3.9046 2.8042 7.8092 4.366 11.714 1.5619 3.9046 3.1947 7.6673 4.8985 11.288 2.6978-7.4543 5.0405-14.838 7.0283-22.15 1.9878-7.3123 3.8691-14.838 5.6439-22.576h10.223c-2.5558 10.436-5.3955 20.481-8.5192 30.137-3.1237 9.584-6.4959 18.565-10.117 26.942-1.4199 3.1947-2.9107 5.9279-4.4725 8.1997-1.4909 2.3428-3.1592 4.2596-5.005 5.7504-1.8458 1.4908-3.9401 2.5912-6.2829 3.3012-2.2718 0.70993-4.863 1.0649-7.7738 1.0649-0.78092 0-1.5973-0.071-2.4492-0.21297-0.8519-0.071-1.7038-0.21299-2.5557-0.42598-0.78092-0.14197-1.5264-0.31945-2.2363-0.53244-0.63894-0.21297-1.1004-0.39045-1.3844-0.53245zm-5.9629-38.017c0 4.4016-0.63894 8.3772-1.9168 11.927-1.2779 3.5496-3.0882 6.6024-5.431 9.1581-2.2718 2.5557-5.005 4.5436-8.1997 5.9634-3.1947 1.3489-6.6733 2.0233-10.436 2.0233-3.7626 0-7.2413-0.67442-10.436-2.0233-3.1947-1.4199-5.9634-3.4077-8.3062-5.9634-2.2718-2.5558-4.0466-5.6085-5.3245-9.1581-1.2779-3.5496-1.9168-7.5252-1.9168-11.927 0-4.3306 0.63894-8.2707 1.9168-11.82 1.2779-3.6206 3.0527-6.7088 5.3245-9.2646 2.3428-2.5558 5.1115-4.5081 8.3062-5.8569 3.1947-1.4199 6.6733-2.1298 10.436-2.1298 3.7626 0 7.2413 0.70993 10.436 2.1298 3.1947 1.3489 5.9279 3.3012 8.1997 5.8569 2.3428 2.5557 4.1531 5.6439 5.431 9.2646 1.2779 3.5496 1.9168 7.4898 1.9168 11.82zm-10.329 0c0-6.2474-1.4199-11.181-4.2596-14.802-2.7687-3.6916-6.5668-5.5375-11.394-5.5375-4.8275 0-8.6611 1.8458-11.501 5.5375-2.7687 3.6206-4.1531 8.5546-4.1531 14.802 0 6.2474 1.3844 11.217 4.1531 14.909 2.8397 3.6206 6.6734 5.431 11.501 5.431 4.8275 0 8.6256-1.8103 11.394-5.431 2.8397-3.6917 4.2596-8.6612 4.2596-14.909zm-51.008 28.752c-6.1054-0.142-10.436-1.4554-12.992-3.9401-2.5557-2.4848-3.8336-6.3539-3.8336-11.607v-66.449l9.9035-1.7038v66.556c0 1.6328 0.14198 2.9817 0.42596 4.0466 0.28397 1.0649 0.74543 1.9168 1.3844 2.5558 0.63892 0.63894 1.4908 1.1359 2.5558 1.4908 1.0649 0.28398 2.3783 0.53245 3.9401 0.74541zm-40.892-28.646c0-6.4604-1.5973-11.43-4.792-14.909-3.1947-3.4787-7.4543-5.218-12.779-5.218-2.9817 0-5.3245 0.10649-7.0283 0.31947-1.6328 0.21298-2.9462 0.46145-3.9401 0.74543v34.929c1.2069 0.99391 2.9462 1.9523 5.218 2.8752 2.2718 0.92292 4.7565 1.3844 7.4543 1.3844 2.8397 0 5.2535-0.49694 7.2413-1.4908 2.0588-1.0649 3.7271-2.4848 5.005-4.2596 1.2779-1.8458 2.2008-3.9756 2.7687-6.3894 0.56795-2.4848 0.85192-5.147 0.85192-7.9867zm10.329 0c0 4.1886-0.56793 8.0577-1.7038 11.607-1.0649 3.5496-2.6623 6.6024-4.792 9.1581-2.1298 2.5558-4.7565 4.5435-7.8802 5.9634-3.0527 1.4199-6.5668 2.1298-10.542 2.1298-3.1947 0-6.0344-0.42595-8.5192-1.2778-2.4138-0.85194-4.2241-1.6684-5.431-2.4493v22.15h-9.9035v-73.371c2.3428-0.56794 5.2535-1.1714 8.7321-1.8103 3.5496-0.70993 7.6318-1.0649 12.246-1.0649 4.2596 0 8.0932 0.67444 11.501 2.0233 3.4077 1.3489 6.3184 3.2657 8.7322 5.7504 2.4137 2.4848 4.2596 5.5374 5.5374 9.1581 1.3489 3.5496 2.0233 7.5608 2.0233 12.033z" fill="#fff" style="shape-inside:url(#rect39019);white-space:pre"/><path d="m529.3 132.75c0.85193 0 1.8103 0.071 2.8752 0.21298 1.1359 0.071 2.2363 0.21298 3.3012 0.42596 1.0649 0.14198 2.0233 0.31947 2.8752 0.53244 0.92292 0.14199 1.5973 0.28398 2.0233 0.42596l-1.7038 8.6256c-0.78094-0.28397-2.0943-0.60344-3.9401-0.9584-1.7748-0.42596-4.0821-0.63894-6.9218-0.63894-1.8458 0-3.6916 0.21298-5.5374 0.63894-1.7748 0.35496-2.9462 0.60344-3.5142 0.74542v46.536h-9.9035v-53.032c2.3428-0.85191 5.2535-1.6328 8.7321-2.3428 3.4787-0.78092 7.3833-1.1714 11.714-1.1714z" fill="#a1a1a1" style="shape-inside:url(#rect39019);white-space:pre"/></g></svg>
